#N canvas 953 0 958 988 10;
#X obj 711 94 udpreceive 57120;
#X obj 711 122 unpackOSC;
#X obj 711 148 routeOSC /twitch;
#X obj 711 176 routeOSC /trigger;
#X obj 559 576 dac~;
#X obj 508 515 *~;
#X obj 836 346 line~;
#X msg 836 315 0 100;
#X floatatom 886 290 5 0 0 0 - - -, f 5;
#X obj 786 252 routeOSC /on /off /set;
#X obj 711 202 routeOSC /note /volume;
#X obj 786 275 bng 15 250 50 0 empty empty empty 17 7 0 10 -262144
-1 -1;
#X msg 886 315 \$1 10;
#X obj 786 299 bng 15 250 50 0 empty empty empty 17 7 0 10 -262144
-1 -1;
#X obj 786 322 bng 15 250 50 0 empty empty empty 17 7 0 10 -262144
-1 -1;
#N canvas 0 50 450 250 (subpatch) 0;
#X array root_notes 8 float 3;
#A 0 36 38 40 41 43 45 47 48;
#X coords 0 80 8 0 200 100 1 0 0;
#X restore 369 43 graph;
#X obj 711 228 tabread notes;
#X obj 558 515 *~;
#X obj 608 515 *~;
#X text 608 151 C Major;
#N canvas 0 50 450 250 (subpatch) 0;
#X array melody_notes 8 float 3;
#A 0 60 0 0 0 0 0 0 0;
#X coords 0 80 8 0 200 100 1 0 0;
#X restore 61 41 graph;
#X msg 345 144 \; root_notes 0 36 38 40 41 43 45 47 48;
#X obj 42 390 + 24;
#X msg 186 411 0;
#X obj 42 434 tabwrite melody_notes;
#X obj 307 406 mtof~;
#X obj 307 431 osc~;
#X floatatom 307 219 5 0 0 0 - - -, f 5;
#X text 350 218 Index in table;
#X floatatom 307 376 5 0 0 0 - - -, f 5;
#X obj 442 266 + 2;
#X floatatom 442 376 5 0 0 0 - - -, f 5;
#X text 483 373 Third;
#X text 348 373 Root;
#X floatatom 576 376 5 0 0 0 - - -, f 5;
#X obj 576 266 + 4;
#X text 617 373 Fifth;
#X obj 622 233 bng 15 250 50 0 empty empty empty 17 7 0 10 -262144
-1 -1;
#X obj 576 299 %;
#X obj 442 299 %;
#X obj 307 296 %;
#X floatatom 622 301 5 0 0 0 - - -, f 5;
#X obj 442 406 mtof~;
#X obj 442 431 osc~;
#X obj 576 406 mtof~;
#X obj 576 431 osc~;
#X obj 307 340 tabread root_notes;
#X obj 442 340 tabread root_notes;
#X obj 576 340 tabread root_notes;
#X obj 622 265 array size root_notes;
#X connect 0 0 1 0;
#X connect 1 0 2 0;
#X connect 2 0 3 0;
#X connect 3 0 10 0;
#X connect 5 0 4 0;
#X connect 5 0 4 1;
#X connect 6 0 5 1;
#X connect 6 0 17 1;
#X connect 6 0 18 1;
#X connect 7 0 6 0;
#X connect 8 0 12 0;
#X connect 9 0 11 0;
#X connect 9 1 7 0;
#X connect 9 1 13 0;
#X connect 9 2 8 0;
#X connect 9 2 14 0;
#X connect 10 0 16 0;
#X connect 10 0 27 0;
#X connect 10 1 9 0;
#X connect 11 0 8 0;
#X connect 12 0 6 0;
#X connect 17 0 4 0;
#X connect 17 0 4 1;
#X connect 18 0 4 0;
#X connect 18 0 4 1;
#X connect 22 0 24 0;
#X connect 23 0 24 1;
#X connect 25 0 26 0;
#X connect 26 0 5 0;
#X connect 27 0 30 0;
#X connect 27 0 35 0;
#X connect 27 0 37 0;
#X connect 27 0 40 0;
#X connect 27 0 22 0;
#X connect 29 0 25 0;
#X connect 30 0 39 0;
#X connect 31 0 42 0;
#X connect 34 0 44 0;
#X connect 35 0 38 0;
#X connect 37 0 49 0;
#X connect 38 0 48 0;
#X connect 39 0 47 0;
#X connect 40 0 46 0;
#X connect 42 0 43 0;
#X connect 43 0 17 0;
#X connect 44 0 45 0;
#X connect 45 0 18 0;
#X connect 46 0 29 0;
#X connect 47 0 31 0;
#X connect 48 0 34 0;
#X connect 49 0 38 1;
#X connect 49 0 39 1;
#X connect 49 0 40 1;
#X connect 49 0 41 0;
